<?xml version="1.0" encoding="UTF-8" standalone="no"?>
<!--

    Logspace
    Copyright (c) 2015 Indoqa Software Design und Beratung GmbH. All rights reserved.
    This program and the accompanying materials are made available under the terms of
    the Eclipse Public License Version 1.0, which accompanies this distribution and
    is available at http://www.eclipse.org/legal/epl-v10.html.

-->
<svg width="28px" height="28px" viewBox="0 0 28 28" version="1.1" xmlns="http://www.w3.org/2000/svg" xmlns:xlink="http://www.w3.org/1999/xlink" xmlns:sketch="http://www.bohemiancoding.com/sketch/ns">
    <!-- Generator: Sketch 3.3.2 (12043) - http://www.bohemiancoding.com/sketch -->
    <title>Slice 1</title>
    <desc>Created with Sketch.</desc>
    <defs></defs>
    <g id="Page-1" stroke="none" stroke-width="1" fill="none" fill-rule="evenodd" sketch:type="MSPage">
        <g id="1436979527_refresh" sketch:type="MSLayerGroup" fill="#FFFFFF">
            <path d="M26,14 C24.781,14 24.203,14.859 24,15.766 C23.269,19.03 20.167,24 14,24 C8.477,24 4,19.522 4,14 C4,8.478 8.477,4 14,4 C16.24,4 18.295,4.753 19.96,6 L18,6 C16.896,6 16,6.896 16,8 C16,9.104 16.896,10 18,10 L24,10 C25.104,10 26,9.104 26,8 L26,2 C26,0.896 25.104,0 24,0 C22.896,0 22,0.896 22,2 L22,2.518 C19.733,0.932 16.977,0 14,0 C6.268,0 0,6.268 0,14 C0,21.732 6.268,28 14,28 C23.979,28 28,18.5 28,16.125 C28,14.672 26.938,14 26,14 L26,14 Z" id="Shape" sketch:type="MSShapeGroup"></path>
        </g>
    </g>
</svg>
