<?xml version="1.0" encoding="UTF-8" standalone="no"?>
<!--

    Logspace
    Copyright (c) 2015 Indoqa Software Design und Beratung GmbH. All rights reserved.
    This program and the accompanying materials are made available under the terms of
    the Eclipse Public License Version 1.0, which accompanies this distribution and
    is available at http://www.eclipse.org/legal/epl-v10.html.

-->
<svg width="462px" height="513px" viewBox="0 0 462 513" version="1.1" xmlns="http://www.w3.org/2000/svg" xmlns:xlink="http://www.w3.org/1999/xlink" xmlns:sketch="http://www.bohemiancoding.com/sketch/ns">
    <!-- Generator: Sketch 3.3.2 (12043) - http://www.bohemiancoding.com/sketch -->
    <title>Slice 1</title>
    <desc>Created with Sketch.</desc>
    <defs></defs>
    <g id="Page-1" stroke="none" stroke-width="1" fill="none" fill-rule="evenodd" sketch:type="MSPage">
        <g id="1436982402_statistic" sketch:type="MSLayerGroup" fill="#FFFFFF">
            <g id="Group" sketch:type="MSShapeGroup">
                <g transform="translate(26.000000, 201.000000)" id="Shape">
                    <path d="M86.8,311.9 L18.5,311.9 C8.5,311.9 0.4,303.7 0.4,293.8 L0.4,154 C0.4,144 8.6,135.9 18.5,135.9 L86.8,135.9 C96.8,135.9 104.9,144.1 104.9,154 L104.9,293.8 C105,303.8 96.8,311.9 86.8,311.9 L86.8,311.9 Z"></path>
                    <path d="M235.9,311.9 L174.1,311.9 C162.4,311.9 152.7,302.3 152.7,290.5 L152.7,88.8 C152.7,77.1 162.3,67.4 174.1,67.4 L235.9,67.4 C247.6,67.4 257.3,77 257.3,88.8 L257.3,290.5 C257.3,302.3 247.7,311.9 235.9,311.9 L235.9,311.9 Z"></path>
                    <path d="M385.5,311.9 L329.2,311.9 C315.9,311.9 305.1,301 305.1,287.8 L305.1,24.3 C305.1,11 316,0.2 329.2,0.2 L385.5,0.2 C398.8,0.2 409.6,11.1 409.6,24.3 L409.6,287.8 C409.6,301.1 398.8,311.9 385.5,311.9 L385.5,311.9 Z"></path>
                </g>
                <path d="M420.1,1 C398.1,1.9 381,20.5 381.9,42.6 L280.3,142.5 L193.7,66.7 L35.2,225.7 C14.8,228.3 -0.5,245.9 0.3,266.8 C1.2,288.8 19.9,305.9 41.9,305 C63.9,304.1 81,285.4 80.1,263.4 C80,261.6 79.6,259.9 79.3,258.1 L198.6,143.6 L282.3,216.9 L421,80.7 C421.8,80.7 422.6,80.9 423.4,80.8 C445.4,79.9 462.5,61.2 461.6,39.2 C460.7,17.2 442.1,0.1 420.1,1 L420.1,1 Z" id="Shape"></path>
            </g>
        </g>
    </g>
</svg>
