<?xml version="1.0" encoding="UTF-8" standalone="no"?>
<svg width="257px" height="385px" viewBox="0 0 257 385" version="1.1" xmlns="http://www.w3.org/2000/svg" xmlns:xlink="http://www.w3.org/1999/xlink" xmlns:sketch="http://www.bohemiancoding.com/sketch/ns">
    <!-- Generator: Sketch 3.3.2 (12043) - http://www.bohemiancoding.com/sketch -->
    <title>Slice 1</title>
    <desc>Created with Sketch.</desc>
    <defs></defs>
    <g id="Page-1" stroke="none" stroke-width="1" fill="none" fill-rule="evenodd" sketch:type="MSPage">
        <g id="1436980465_icon-pause" sketch:type="MSLayerGroup" fill="#FFFFFF">
            <g id="Group" sketch:type="MSShapeGroup">
                <path d="M96,372.8 L96,13.1 C96,6.4 90.6,1 83.8,1 L12.2,1 C5.4,1 0,6.4 0,13.1 L0,372.8 C0,379.5 5.4,385 12.2,385 L83.8,385 C90.6,385 96,379.6 96,372.8 L96,372.8 Z" id="Shape"></path>
                <path d="M243.8,1 L172.2,1 C165.5,1 160,6.4 160,13.1 L160,372.8 C160,379.5 165.4,385 172.2,385 L243.8,385 C250.5,385 256,379.6 256,372.8 L256,13.1 C256,6.4 250.6,1 243.8,1 L243.8,1 Z" id="Shape"></path>
            </g>
        </g>
    </g>
</svg>